<?xml version="1.0" encoding="UTF-8" standalone="no"?>
<!-- Created with Inkscape (http://www.inkscape.org/) -->

<svg
   width="532.85693"
   height="555.12299"
   viewBox="0 0 87.697594 91.362141"
   version="1.1"
   id="svg5"
   inkscape:version="1.1.1 (3bf5ae0d25, 2021-09-20)"
   sodipodi:docname="logo.svg"
   xmlns:inkscape="http://www.inkscape.org/namespaces/inkscape"
   xmlns:sodipodi="http://sodipodi.sourceforge.net/DTD/sodipodi-0.dtd"
   xmlns="http://www.w3.org/2000/svg"
   xmlns:svg="http://www.w3.org/2000/svg">
  <sodipodi:namedview
     id="namedview7"
     pagecolor="#ffffff"
     bordercolor="#666666"
     borderopacity="1.0"
     inkscape:pageshadow="2"
     inkscape:pageopacity="1"
     inkscape:pagecheckerboard="true"
     inkscape:document-units="px"
     showgrid="false"
     inkscape:zoom="0.6895202"
     inkscape:cx="619.2712"
     inkscape:cy="159.53122"
     inkscape:window-width="2560"
     inkscape:window-height="1376"
     inkscape:window-x="0"
     inkscape:window-y="34"
     inkscape:window-maximized="1"
     inkscape:current-layer="g1024"
     fit-margin-top="0"
     fit-margin-left="0"
     fit-margin-right="0"
     fit-margin-bottom="0"
     units="px"
     scale-x="0.16458" />
  <defs
     id="defs2" />
  <g
     inkscape:label="Layer 1"
     inkscape:groupmode="layer"
     id="layer1"
     transform="translate(-53.735105,-105.21046)">
    <g
       id="g849"
       transform="matrix(1.0185719,0,0,1.0185719,49.050814,78.748008)">
      <g
         id="g1024"
         transform="matrix(0.76856327,0,0,0.76856327,13.789575,30.324924)">
        <g
           id="g1238"
           transform="matrix(1.6266561,0,0,1.6266561,-127.92294,-20.649612)">
          <g
             data-v-423bf9ae=""
             id="8b70f3d7-3bfd-436d-ae35-013a2bc23f39"
             transform="matrix(0.96562922,0,0,0.96562922,58.350782,-1.885676)"
             stroke="none"
             fill="#d4406e">
            <path
               d="m 42.5,35.1 c 0,0 4.5,-1.1 5.3,-1.4 0.7,-0.3 2.6,-0.5 3.1,-0.3 0.5,0.2 2.2,0.4 2.2,0.4 l 6,-15.7 -9,9.2 1.7,-4 z"
               id="path1216" />
            <path
               d="m 66.3,47.6 c 1.3,-3 1.4,-6.8 1.4,-8.4 0,-1.6 4.6,-19.8 4.6,-19.8 l -7.7,9.1 0.3,-2.2 -6.9,5.9 -4.5,2.9 c -1.1,-0.5 -2.3,-0.8 -3.5,-0.6 -3.4,0.6 -9.3,1.5 -10.9,4.3 -1.2,2.1 -2.7,5.1 -3,7.4 l -5.7,4.1 c -0.4,0 -0.9,0.1 -1.3,0.3 -0.6,0.3 -1,0.9 -1.1,1.4 h -0.1 c 0,0 -1,5.1 1,6.9 2.1,1.8 7.3,4.9 8.4,4.7 1.1,-0.2 1.9,0.8 1.9,0.8 V 63 l 0.9,0.4 v -1.5 l 8,-2.9 c 2.1,0.4 4.6,0 7.3,-2 0.5,-0.3 0.9,-0.7 1.2,-1.1 0,0 2.6,-1.6 5.1,-3.6 0,0 3.1,-5.1 1,-8.5 l -2.1,-3.4 c 0,0 5.4,2.7 4.6,8.7 0.6,-0.6 0.9,-1.1 1.1,-1.5 z m -29.8,8.1 h -1.3 l 1,-0.6 h 0.2 c 0.2,0 0.1,0.6 0.1,0.6 z m -2.3,-1.6 -0.6,1.5 c 0,0 -0.5,-3.6 3.3,-3.1 l 0.4,0.3 c 0,0.1 -2.5,-0.2 -3.1,1.3 z"
               id="path1218" />
            <path
               d="M 81.6,51 79.1,48.7 C 77.8,47.5 76.4,47.1 75.3,47 L 75,46.1 C 76.9,43.7 80.8,45 80.8,45 L 77.6,43.7 C 76,43 74.4,43.1 73.4,43.4 l -0.6,-0.6 c 1.6,-3.8 6.8,-3 6.8,-3 l -4,-0.9 c -4,-0.9 -6.9,1.6 -6.9,1.6 0,0 0,0.2 0.1,0.7 0.4,0.2 0.9,0.5 1.5,0.9 l 1.8,1.8 0.2,0.2 c 0.5,0.7 1,1.6 1.3,2.6 0,0.1 0.1,0.2 0.1,0.4 0.1,0.6 0.2,1.2 0.3,1.9 0,0.6 0,1.2 -0.1,1.9 l -0.3,1.8 c -0.3,1.2 -0.7,2.5 -1.4,3.9 -0.4,0.8 -0.8,1.7 -1.3,2.7 -0.2,0.3 -0.4,0.7 -0.6,1 -0.6,1 -1.2,2 -2,3.1 -0.6,0.8 -1.2,1.6 -1.8,2.5 -0.6,0.8 -1.3,1.6 -2,2.4 -0.2,0.3 -0.5,0.5 -0.7,0.8 -0.5,0.6 -1,1.1 -1.5,1.7 -0.1,0.1 -0.2,0.3 -0.4,0.4 -0.4,0.4 -0.7,0.8 -1.1,1.2 -0.5,0.6 -1.1,1.2 -1.7,1.7 -0.3,0.3 -0.6,0.6 -0.8,0.9 l -1.5,1.5 -0.7,0.7 C 56,77.1 56,77 55.9,76.8 c 0.3,-0.3 0.5,-0.6 0.8,-0.9 0.4,-0.4 0.8,-0.9 1.2,-1.4 0.3,-0.4 0.7,-0.8 1,-1.2 0.4,-0.5 0.8,-0.9 1.2,-1.4 0.4,-0.5 0.9,-1.1 1.3,-1.6 l 0.1,-0.1 C 62,69.6 62.4,69 62.9,68.4 63.4,67.7 64,67 64.5,66.2 64.7,65.9 64.9,65.7 65,65.4 70.9,57 75.6,46.9 68.7,42.7 c -0.2,3.4 -2,10.5 -11.9,17.2 -13.7,9.3 -24.1,5.3 -24.1,5.3 0,0 -5.8,-2.4 -6.8,-3.6 l -1,-1.2 c 0,0 -2.8,7.4 0,15.1 0.3,0.9 0.6,1.6 0.9,2.3 1.8,4.8 6.3,8 11.4,8 4.9,0 11.6,-1.6 19.1,-7.5 0.1,0.6 0.1,1 0.1,1 l 0.1,-1.2 2.1,-1.8 c 0.1,0.6 0.1,1.1 0.1,1.1 L 58.8,76 c 0.8,-0.8 1.7,-1.6 2.5,-2.4 0.3,0.9 0.3,1.8 0.3,1.8 l 0.2,-2.3 c 0.5,-0.6 1.1,-1.1 1.6,-1.8 1.1,0.9 1.5,2.6 1.5,2.6 L 64.6,71.4 C 64.5,71 64.4,70.6 64.3,70.3 64.7,69.9 65,69.5 65.4,69.1 l 0.3,-0.3 c 3,-0.6 5.2,2.7 5.2,2.7 l -1.7,-3 c -0.5,-0.9 -1.1,-1.5 -1.7,-2 0.8,-1 1.5,-2 2.1,-2.9 3,0.2 4.2,3.9 4.2,3.9 l -0.9,-3.3 c -0.4,-1.3 -1.1,-2.3 -1.8,-3 0.3,-0.4 0.5,-0.9 0.8,-1.3 3,-0.7 5.3,2.7 5.3,2.7 l -1.7,-3 c -0.6,-1.1 -1.4,-1.9 -2.2,-2.4 0.4,-1 0.8,-1.9 1.1,-2.7 3.1,-0.9 5.5,2.7 5.5,2.7 l -1.7,-3 c -0.8,-1.5 -2,-2.4 -3,-2.8 0.1,-0.4 0.1,-0.7 0.1,-1.1 3,-1.9 6.3,0.7 6.3,0.7 z m -25,23.9 c 0,0.1 0,0.1 0.1,0.2 -0.1,-0.1 -0.1,-0.2 -0.1,-0.2 z m -0.5,-1.1 c 0,0 0,0.1 0,0 0,0.1 0,0 0,0 z m 0.2,0.5 c 0,0.1 0.1,0.1 0.1,0.2 0,-0.1 0,-0.2 -0.1,-0.2 z"
               id="path1220" />
            <path
               d="m 83,23.8 c 0,-0.1 0.1,-0.1 0.1,-0.2 L 82.4,22.9 C 81.6,22 81,21.6 81,21.6 73.8,15.3 64.5,11.5 54.2,11.5 31.7,11.5 13.4,29.7 13.4,52.3 13.4,63.7 18.1,74 25.6,81.4 23.1,76.4 19.8,65.3 24.8,57.3 L 25,57 l 0.8,-5.8 0.3,-2.1 2.3,-1.6 H 30 l 3.3,-2.2 c 1.3,-4.7 6.4,-10.4 6.4,-10.4 L 52.9,19.1 V 22 l 5.8,-5.8 2.5,-0.8 0.9,2.2 -4.7,12.3 8.7,-9.1 v 3.4 l 7.3,-7.7 0.5,1.5 -4.2,19.6 0.1,-0.1 c 0,0 6.4,-5.2 10.7,-10.5 2.4,1.5 4,5.8 4,5.8 0.7,-4.4 -0.4,-7.3 -1.5,-9 z"
               id="path1222" />
          </g>
        </g>
      </g>
    </g>
  </g>
</svg>
