<?xml version="1.0" standalone="no"?>
<!DOCTYPE svg PUBLIC "-//W3C//DTD SVG 20010904//EN"
 "http://www.w3.org/TR/2001/REC-SVG-20010904/DTD/svg10.dtd">
<svg version="1.0" xmlns="http://www.w3.org/2000/svg"
 width="555.000000pt" height="555.000000pt" viewBox="0 0 555.000000 555.000000"
 preserveAspectRatio="xMidYMid meet">
<metadata>
Created by potrace 1.14, written by Peter Selinger 2001-2017
</metadata>
<g transform="translate(0.000000,555.000000) scale(0.100000,-0.100000)"
fill="#000000" stroke="none">
<path d="M2900 5540 c-1082 -104 -1991 -724 -2474 -1687 -346 -692 -409 -1531
-171 -2274 136 -422 379 -838 672 -1149 41 -44 78 -79 80 -76 2 2 -4 21 -15
43 -126 250 -222 676 -222 985 0 256 42 445 145 654 l65 131 39 280 c21 155
41 285 45 291 3 6 42 36 86 66 75 53 83 56 140 56 59 0 63 2 184 83 120 79
124 84 140 132 40 127 162 341 299 523 40 53 313 385 607 737 l535 639 3 -104
3 -104 217 216 217 217 93 29 c50 17 94 27 96 23 3 -4 18 -41 35 -83 l30 -76
-170 -443 c-93 -244 -172 -451 -174 -459 -3 -8 9 1 27 20 17 19 163 172 322
339 l291 303 5 -122 5 -122 265 281 c146 154 268 281 271 281 3 0 13 -24 22
-54 l17 -53 -155 -723 c-85 -398 -153 -725 -151 -727 5 -5 209 173 358 313
131 124 269 266 389 404 l56 64 58 -55 c67 -62 141 -170 193 -281 21 -43 40
-78 44 -78 3 0 9 43 13 96 14 177 -24 375 -95 503 -16 29 -28 57 -25 60 7 12
-130 141 -250 236 -451 360 -946 572 -1515 650 -138 19 -517 27 -650 15z"/>
<path d="M3190 4715 c-179 -184 -326 -332 -328 -331 -1 2 22 61 53 131 30 71
54 130 52 131 -1 2 -154 -189 -339 -424 -185 -235 -334 -428 -330 -430 4 -1
93 21 197 49 321 87 348 91 460 64 33 -8 74 -15 91 -15 29 0 34 5 53 53 55
139 420 1101 418 1103 -1 1 -148 -148 -327 -331z"/>
<path d="M4224 4620 c-154 -181 -280 -324 -282 -317 -2 8 1 40 7 73 5 32 8 60
7 61 -2 2 -117 -95 -257 -215 -198 -169 -291 -241 -422 -325 l-168 -108 -62
19 c-104 34 -138 35 -296 7 -333 -59 -519 -122 -642 -219 -42 -33 -66 -64
-109 -141 -73 -133 -144 -301 -173 -410 l-24 -90 -212 -152 c-116 -84 -220
-153 -231 -153 -27 0 -90 -26 -113 -48 -47 -42 -60 -90 -65 -236 -8 -243 19
-309 173 -421 223 -162 436 -273 544 -285 73 -8 83 -12 119 -43 l22 -20 0 52
c0 47 2 52 18 46 51 -21 52 -21 52 37 l0 55 288 104 287 104 120 1 c107 0 129
3 207 31 105 37 207 95 280 161 29 26 105 83 168 127 192 131 259 185 280 225
73 143 117 320 106 427 -9 89 -26 128 -114 271 -43 70 -82 133 -87 141 -16 28
58 -24 131 -92 135 -126 205 -275 208 -444 1 -88 2 -91 20 -75 81 74 137 286
161 610 12 168 22 230 64 417 47 208 266 1116 276 1143 2 6 3 12 1 12 -2 0
-129 -148 -282 -330z m-2344 -2145 c11 -13 6 -15 -33 -15 -54 0 -123 -23 -153
-51 -12 -12 -33 -49 -46 -82 l-23 -62 -3 37 c-6 72 58 165 123 181 47 11 123
7 135 -8z m-40 -205 c0 -17 -7 -20 -47 -20 l-48 0 30 20 c39 26 65 26 65 0z"/>
<path d="M4534 3511 c-71 -12 -119 -28 -194 -68 -94 -49 -102 -56 -94 -87 4
-17 23 -36 58 -55 59 -35 201 -176 241 -240 42 -68 71 -158 85 -262 25 -187
-25 -404 -156 -678 -188 -392 -466 -756 -957 -1257 -115 -118 -213 -214 -218
-214 -21 0 -6 32 40 82 90 100 407 484 492 599 200 267 432 649 524 863 203
470 187 789 -50 978 l-59 48 -18 -105 c-75 -447 -397 -869 -923 -1212 -438
-284 -866 -424 -1302 -424 -269 0 -388 26 -615 134 -238 112 -279 137 -350
210 l-68 68 -11 -28 c-21 -55 -57 -233 -69 -343 -17 -151 -8 -404 20 -532 40
-189 144 -456 226 -579 121 -184 313 -321 529 -381 67 -18 106 -22 245 -21
177 0 281 13 454 58 273 71 573 218 844 415 99 72 107 76 114 56 5 -17 6 -16
7 9 1 25 15 42 80 98 73 62 80 65 84 44 3 -17 5 -15 6 8 1 24 20 50 95 124
l95 94 6 -29 c14 -65 24 -70 25 -14 2 70 4 75 73 151 l58 63 24 -29 c14 -17
36 -52 51 -80 l26 -50 -7 75 c-4 40 -13 92 -19 115 -12 40 -12 40 37 98 l50
57 66 0 c86 0 164 -36 249 -115 l62 -57 -70 123 c-39 68 -91 144 -116 169 -24
25 -44 49 -44 52 0 4 34 55 77 113 74 103 77 106 107 99 85 -18 169 -87 230
-188 20 -33 36 -58 36 -55 0 2 -14 54 -30 114 -34 126 -73 212 -124 271 l-34
40 30 53 31 53 72 -4 c89 -6 172 -47 253 -127 l56 -55 -34 59 c-96 172 -129
221 -183 271 l-59 54 38 96 c44 110 56 119 143 111 74 -8 151 -48 229 -121 58
-53 63 -57 45 -26 -11 19 -40 69 -63 110 -68 120 -114 175 -185 221 -61 41
-65 46 -65 81 0 34 4 40 43 59 89 47 235 35 362 -28 l50 -25 -79 73 c-44 41
-96 87 -115 103 -48 39 -143 83 -206 96 -47 10 -53 14 -62 45 -10 30 -8 36 16
58 14 14 46 35 71 48 40 21 58 24 167 24 67 0 116 3 110 6 -7 4 -66 29 -132
55 l-120 49 -123 1 c-111 0 -125 3 -144 21 l-21 21 22 35 c28 46 99 111 151
137 54 28 157 49 240 51 l65 1 -145 33 c-158 37 -267 48 -346 36z"/>
</g>
</svg>
