<svg data-v-423bf9ae="" xmlns="http://www.w3.org/2000/svg" viewBox="0 0 298.633570190039 60" class="font"><!----><!----><!----><g data-v-423bf9ae="" id="bfaecdd3-4ee9-42f9-b881-01f668780d73" fill="black" transform="matrix(5.479452150239503,0,0,5.479452150239503,-1.366435147577306,2.465753833808918)"><path d="M2.11 10.50L2.11 10.50Q1.79 10.50 1.35 10.27L1.35 10.27L1.35 10.27Q0.91 10.04 0.58 9.72L0.58 9.72L0.58 9.72Q0.25 9.39 0.25 9.18L0.25 9.18L0.25 9.18Q0.24 8.96 0.39 8.24L0.39 8.24L0.39 8.24Q0.53 7.52 0.57 7.31L0.57 7.31L0.57 7.31Q0.63 7.03 0.78 6.28L0.78 6.28L0.78 6.28Q0.94 5.53 1.04 4.89L1.04 4.89L1.15 4.23L1.15 4.23Q1.41 2.66 1.65 1.68L1.65 1.68L1.65 1.68Q1.88 0.70 2.11 0.70L2.11 0.70L2.11 0.70Q2.35 0.70 2.77 0.90L2.77 0.90L2.77 0.90Q3.18 1.09 3.54 1.39L3.54 1.39L3.54 1.39Q3.91 1.69 4.03 1.96L4.03 1.96L4.03 1.96Q4.26 2.46 4.62 4.12L4.62 4.12L4.62 4.12Q4.87 5.26 5.00 5.70L5.00 5.70L5.00 5.70Q5.60 4.79 6.54 2.91L6.54 2.91L6.54 2.91Q7.14 1.72 7.46 1.21L7.46 1.21L7.46 1.21Q7.77 0.70 8.02 0.70L8.02 0.70L8.02 0.70Q8.29 0.70 8.74 0.94L8.74 0.94L8.74 0.94Q9.20 1.18 9.54 1.50L9.54 1.50L9.54 1.50Q9.88 1.82 9.88 2.06L9.88 2.06L9.88 2.06Q9.88 2.25 9.72 3.16L9.72 3.16L9.72 3.16Q9.55 4.06 9.51 4.28L9.51 4.28L9.14 6.26L9.14 6.26Q9.00 7.08 8.85 8.43L8.85 8.43L8.85 8.43Q8.71 9.58 8.60 10.04L8.60 10.04L8.60 10.04Q8.50 10.50 8.27 10.50L8.27 10.50L8.27 10.50Q7.95 10.50 7.51 10.27L7.51 10.27L7.51 10.27Q7.07 10.04 6.74 9.72L6.74 9.72L6.74 9.72Q6.41 9.39 6.41 9.18L6.41 9.18L6.41 9.18Q6.40 9.00 6.52 8.41L6.52 8.41L6.52 8.41Q6.64 7.81 6.79 7.06L6.79 7.06L6.79 7.06Q6.92 6.45 6.93 6.37L6.93 6.37L7.43 4.82L7.24 4.75L7.10 5.03L7.10 5.03Q6.55 6.15 6.22 6.77L6.22 6.77L6.22 6.77Q5.89 7.39 5.68 7.66L5.68 7.66L5.68 7.66Q5.54 7.83 5.18 7.93L5.18 7.93L5.18 7.93Q4.82 8.04 4.47 8.04L4.47 8.04L4.47 8.04Q4.10 8.04 3.98 7.91L3.98 7.91L3.98 7.91Q3.85 7.80 3.76 7.44L3.76 7.44L3.76 7.44Q3.67 7.08 3.51 6.33L3.51 6.33L3.51 6.33Q3.49 6.17 3.36 5.58L3.36 5.58L3.36 5.58Q3.23 4.98 3.08 4.49L3.08 4.49L2.98 6.26L2.98 6.26Q2.84 7.08 2.69 8.43L2.69 8.43L2.69 8.43Q2.55 9.58 2.44 10.04L2.44 10.04L2.44 10.04Q2.34 10.50 2.11 10.50L2.11 10.50ZM13.02 2.20L13.02 2.20Q12.75 2.20 12.38 1.98L12.38 1.98L12.38 1.98Q12.01 1.76 11.75 1.46L11.75 1.46L11.75 1.46Q11.48 1.16 11.48 0.92L11.48 0.92L11.48 0.92Q11.48 0.55 11.68 0.17L11.68 0.17L11.68 0.17Q11.87-0.21 12.17-0.38L12.17-0.38L12.17-0.38Q12.31-0.45 12.61-0.45L12.61-0.45L12.61-0.45Q13.12-0.45 13.63-0.22L13.63-0.22L13.63-0.22Q14.14 0 14.25 0.34L14.25 0.34L14.25 0.34Q14.28 0.41 14.28 0.55L14.28 0.55L14.28 0.55Q14.28 0.87 14.08 1.26L14.08 1.26L14.08 1.26Q13.89 1.65 13.59 1.92L13.59 1.92L13.59 1.92Q13.30 2.20 13.02 2.20L13.02 2.20ZM12.07 10.50L12.07 10.50Q11.70 10.50 11.25 10.26L11.25 10.26L11.25 10.26Q10.79 10.01 10.46 9.68L10.46 9.68L10.46 9.68Q10.14 9.35 10.14 9.13L10.14 9.13L10.14 9.13Q10.14 8.88 10.32 8.39L10.32 8.39L10.32 8.39Q10.50 7.90 10.86 7.04L10.86 7.04L10.86 7.04Q11.14 6.38 11.28 6.01L11.28 6.01L11.28 6.01Q11.42 5.64 11.42 5.49L11.42 5.49L11.42 5.49Q11.42 5.38 11.29 5.24L11.29 5.24L11.29 5.24Q11.16 5.11 10.89 4.91L10.89 4.91L10.89 4.91Q10.58 4.68 10.44 4.54L10.44 4.54L10.44 4.54Q10.29 4.40 10.29 4.24L10.29 4.24L10.29 4.24Q10.29 3.95 10.56 3.56L10.56 3.56L10.56 3.56Q10.84 3.16 11.21 2.88L11.21 2.88L11.21 2.88Q11.58 2.60 11.84 2.60L11.84 2.60L11.84 2.60Q12.17 2.60 12.55 2.88L12.55 2.88L12.55 2.88Q12.94 3.16 13.21 3.55L13.21 3.55L13.21 3.55Q13.48 3.93 13.48 4.17L13.48 4.17L13.48 4.17Q13.48 4.79 13.17 5.93L13.17 5.93L13.17 5.93Q12.85 7.07 12.36 8.39L12.36 8.39L12.36 8.39Q12.70 8.23 12.95 8.06L12.95 8.06L12.95 8.06Q13.20 7.90 13.65 7.55L13.65 7.55L13.65 7.55Q14.28 7.76 14.57 8.14L14.57 8.14L14.57 8.14Q14.87 8.53 14.87 8.97L14.87 8.97L14.87 8.97Q14.87 9.34 14.40 9.69L14.40 9.69L14.40 9.69Q13.93 10.04 13.26 10.27L13.26 10.27L13.26 10.27Q12.59 10.50 12.07 10.50L12.07 10.50ZM22.44 7.35L22.44 7.35Q23.07 7.62 23.37 7.93L23.37 7.93L23.37 7.93Q23.66 8.25 23.66 8.74L23.66 8.74L23.66 8.74Q23.66 9.14 23.20 9.55L23.20 9.55L23.20 9.55Q22.74 9.97 22.06 10.23L22.06 10.23L22.06 10.23Q21.39 10.50 20.82 10.50L20.82 10.50L20.82 10.50Q20.44 10.50 20.11 10.35L20.11 10.35L20.11 10.35Q19.78 10.19 19.39 9.91L19.39 9.91L19.39 9.91Q19.19 9.79 19.02 9.69L19.02 9.69L19.02 9.69Q18.84 9.59 18.73 9.59L18.73 9.59L18.73 9.59Q18.49 9.59 18.12 9.82L18.12 9.82L18.12 9.82Q17.74 10.05 17.11 10.50L17.11 10.50L17.11 10.50Q16.42 10.49 15.99 10.07L15.99 10.07L15.99 10.07Q15.55 9.65 15.55 9.03L15.55 9.03L15.55 9.03Q15.55 8.82 15.62 8.57L15.62 8.57L15.62 8.57Q17.25 7.77 18.31 6.82L18.31 6.82L18.31 6.82Q19.38 5.88 20.16 4.58L20.16 4.58L20.16 4.58Q20.08 4.59 19.94 4.59L19.94 4.59L19.94 4.59Q19.73 4.59 19.33 4.49L19.33 4.49L19.33 4.49Q19.15 4.42 19.00 4.42L19.00 4.42L19.00 4.42Q18.59 4.42 18.07 5.84L18.07 5.84L18.07 5.84Q17.85 5.89 17.56 5.89L17.56 5.89L17.56 5.89Q16.83 5.89 16.29 5.54L16.29 5.54L16.29 5.54Q15.75 5.18 15.75 4.66L15.75 4.66L15.75 4.66Q15.75 4.28 16.09 3.79L16.09 3.79L16.09 3.79Q16.42 3.30 16.94 2.95L16.94 2.95L16.94 2.95Q17.46 2.60 17.96 2.60L17.96 2.60L17.96 2.60Q18.37 2.60 18.72 2.77L18.72 2.77L18.72 2.77Q19.07 2.94 19.50 3.25L19.50 3.25L19.50 3.25Q19.75 3.44 19.92 3.54L19.92 3.54L19.92 3.54Q20.09 3.63 20.23 3.63L20.23 3.63L20.23 3.63Q20.72 3.63 21.21 2.94L21.21 2.94L21.21 2.94Q21.49 2.90 21.73 2.90L21.73 2.90L21.73 2.90Q22.43 2.90 22.83 3.23L22.83 3.23L22.83 3.23Q23.23 3.56 23.23 4.16L23.23 4.16L23.23 4.16Q23.23 4.63 21.96 5.98L21.96 5.98L21.96 5.98Q20.69 7.32 19.32 8.50L19.32 8.50L19.32 8.50Q19.60 8.76 19.94 8.76L19.94 8.76L19.94 8.76Q20.40 8.76 21.17 8.31L21.17 8.31L21.17 8.31Q21.94 7.85 22.44 7.35L22.44 7.35ZM26.38 10.50L26.38 10.50Q26.01 10.50 25.58 10.23L25.58 10.23L25.58 10.23Q25.16 9.95 24.86 9.60L24.86 9.60L24.86 9.60Q24.57 9.24 24.57 9.02L24.57 9.02L24.57 9.02Q24.57 8.79 24.70 8.37L24.70 8.37L24.70 8.37Q24.84 7.95 24.98 7.53L24.98 7.53L24.98 7.53Q25.13 7.11 25.17 7L25.17 7L25.17 7Q25.35 6.51 25.50 6.08L25.50 6.08L25.50 6.08Q25.65 5.64 25.65 5.49L25.65 5.49L25.65 5.49Q25.65 5.38 25.51 5.24L25.51 5.24L25.51 5.24Q25.38 5.11 25.12 4.91L25.12 4.91L25.12 4.91Q24.81 4.68 24.66 4.54L24.66 4.54L24.66 4.54Q24.51 4.40 24.51 4.24L24.51 4.24L24.51 4.24Q24.51 3.95 24.79 3.56L24.79 3.56L24.79 3.56Q25.06 3.16 25.43 2.88L25.43 2.88L25.43 2.88Q25.80 2.60 26.07 2.60L26.07 2.60L26.07 2.60Q26.36 2.60 26.75 2.87L26.75 2.87L26.75 2.87Q27.13 3.14 27.42 3.48L27.42 3.48L27.42 3.48Q27.71 3.82 27.71 4.00L27.71 4.00L27.71 4.00Q27.71 4.87 27.41 6.09L27.41 6.09L27.41 6.09Q27.12 7.31 26.66 8.51L26.66 8.51L26.66 8.51Q27.58 7.74 28.31 6.80L28.31 6.80L28.31 6.80Q29.04 5.87 29.33 5.12L29.33 5.12L29.33 5.12Q29.36 4.21 29.55 3.60L29.55 3.60L29.55 3.60Q29.74 2.98 29.99 2.98L29.99 2.98L29.99 2.98Q30.35 2.98 30.79 3.24L30.79 3.24L30.79 3.24Q31.23 3.50 31.54 3.84L31.54 3.84L31.54 3.84Q31.85 4.19 31.85 4.38L31.85 4.38L31.85 4.38Q31.84 4.68 31.58 5.48L31.58 5.48L31.58 5.48Q31.33 6.29 30.88 7.55L30.88 7.55L30.88 7.55Q30.62 8.33 30.58 8.44L30.58 8.44L30.58 8.44Q30.98 8.26 31.31 8.06L31.31 8.06L31.31 8.06Q31.64 7.85 32.00 7.55L32.00 7.55L32.00 7.55Q32.62 7.76 32.92 8.13L32.92 8.13L32.92 8.13Q33.22 8.50 33.22 8.97L33.22 8.97L33.22 8.97Q33.22 9.31 32.75 9.67L32.75 9.67L32.75 9.67Q32.27 10.02 31.61 10.26L31.61 10.26L31.61 10.26Q30.95 10.50 30.49 10.50L30.49 10.50L30.49 10.50Q30.20 10.50 29.79 10.26L29.79 10.26L29.79 10.26Q29.39 10.01 29.07 9.70L29.07 9.70L29.07 9.70Q28.76 9.38 28.76 9.23L28.76 9.23L28.76 9.23Q28.76 9.07 28.86 8.85L28.86 8.85L28.86 8.85Q28.97 8.62 29.10 8.37L29.10 8.37L29.10 8.37Q29.23 8.11 29.30 7.99L29.30 7.99L28.95 7.80L28.95 7.80Q28.18 9.21 27.63 9.86L27.63 9.86L27.63 9.86Q27.08 10.50 26.38 10.50L26.38 10.50ZM36.15 8.65L36.15 8.65Q37.46 8.60 38.58 7.29L38.58 7.29L38.58 7.29Q39.27 7.42 39.68 7.81L39.68 7.81L39.68 7.81Q40.10 8.20 40.10 8.81L40.10 8.81L40.10 8.81Q40.10 9.24 39.60 9.63L39.60 9.63L39.60 9.63Q39.10 10.02 38.36 10.26L38.36 10.26L38.36 10.26Q37.62 10.50 36.93 10.50L36.93 10.50L36.93 10.50Q36.26 10.50 35.53 10.06L35.53 10.06L35.53 10.06Q34.80 9.62 34.33 8.97L34.33 8.97L34.33 8.97Q33.85 8.33 33.85 7.76L33.85 7.76L33.85 7.76Q33.85 6.65 34.36 5.44L34.36 5.44L34.36 5.44Q34.87 4.23 35.78 3.42L35.78 3.42L35.78 3.42Q36.69 2.60 37.83 2.60L37.83 2.60L37.83 2.60Q38.53 2.60 39.16 2.86L39.16 2.86L39.16 2.86Q39.79 3.11 40.17 3.53L40.17 3.53L40.17 3.53Q40.54 3.95 40.54 4.40L40.54 4.40L40.54 4.40Q40.54 4.83 40.17 5.17L40.17 5.17L40.17 5.17Q39.79 5.52 39.17 5.52L39.17 5.52L39.17 5.52Q38.98 5.52 38.77 5.47L38.77 5.47L38.77 5.47Q38.42 4.62 38.00 4.27L38.00 4.27L38.00 4.27Q37.07 4.87 36.60 5.95L36.60 5.95L36.60 5.95Q36.12 7.03 36.12 8.15L36.12 8.15L36.12 8.15Q36.12 8.32 36.15 8.65L36.15 8.65ZM43.47 7.56L43.47 7.56Q43.43 8.65 43.26 9.58L43.26 9.58L43.26 9.58Q43.09 10.50 42.80 10.50L42.80 10.50L42.80 10.50Q42.45 10.50 41.99 10.26L41.99 10.26L41.99 10.26Q41.52 10.02 41.20 9.70L41.20 9.70L41.20 9.70Q40.87 9.37 40.87 9.13L40.87 9.13L40.87 9.13Q40.87 8.96 40.98 8.55L40.98 8.55L40.98 8.55Q41.09 8.13 41.24 7.63L41.24 7.63L41.24 7.63Q41.79 5.84 42.10 4.42L42.10 4.42L42.10 4.42Q42.27 3.64 42.39 2.80L42.39 2.80L42.39 2.80Q42.59 1.68 42.73 1.08L42.73 1.08L42.73 1.08Q42.87 0.48 43.09 0.06L43.09 0.06L43.09 0.06Q43.30-0.35 43.62-0.35L43.62-0.35L43.62-0.35Q43.86-0.35 44.33-0.06L44.33-0.06L44.33-0.06Q44.80 0.22 45.16 0.60L45.16 0.60L45.16 0.60Q45.53 0.97 45.53 1.20L45.53 1.20L45.53 1.20Q45.53 1.41 45.38 1.67L45.38 1.67L45.38 1.67Q45.23 1.93 44.90 2.41L44.90 2.41L44.90 2.41Q44.83 2.51 44.64 2.80L44.64 2.80L44.64 2.80Q44.45 3.09 44.37 3.29L44.37 3.29L44.37 3.29Q44.20 3.70 44.00 4.33L44.00 4.33L44.00 4.33Q43.79 4.96 43.65 5.56L43.65 5.56L43.90 5.70L43.90 5.70Q44.81 4.47 45.49 3.72L45.49 3.72L45.49 3.72Q46.17 2.98 46.55 2.98L46.55 2.98L46.55 2.98Q46.82 2.98 47.19 3.25L47.19 3.25L47.19 3.25Q47.57 3.51 47.85 3.86L47.85 3.86L47.85 3.86Q48.13 4.20 48.13 4.38L48.13 4.38L48.13 4.38Q48.12 4.63 47.97 5.10L47.97 5.10L47.97 5.10Q47.82 5.57 47.52 6.41L47.52 6.41L47.52 6.41Q47.12 7.42 46.82 8.39L46.82 8.39L46.82 8.39Q47.25 8.22 47.54 8.05L47.54 8.05L47.54 8.05Q47.84 7.88 48.23 7.59L48.23 7.59L48.23 7.59Q48.82 7.84 49.09 8.22L49.09 8.22L49.09 8.22Q49.36 8.60 49.34 9.14L49.34 9.14L49.34 9.14Q49.34 9.48 48.83 9.79L48.83 9.79L48.83 9.79Q48.31 10.09 47.65 10.30L47.65 10.30L47.65 10.30Q46.98 10.50 46.59 10.50L46.59 10.50L46.59 10.50Q46.27 10.50 45.85 10.25L45.85 10.25L45.85 10.25Q45.43 10.00 45.12 9.67L45.12 9.67L45.12 9.67Q44.81 9.34 44.83 9.16L44.83 9.16L44.83 9.16Q44.83 9.04 44.97 8.62L44.97 8.62L44.97 8.62Q45.11 8.19 45.15 8.04L45.15 8.04L45.15 8.04Q45.42 7.20 45.55 6.70L45.55 6.70L45.55 6.70Q45.68 6.20 45.68 5.96L45.68 5.96L45.68 5.96Q45.68 5.80 45.61 5.80L45.61 5.80L45.61 5.80Q45.30 5.80 44.69 6.33L44.69 6.33L44.69 6.33Q44.07 6.86 43.47 7.56L43.47 7.56ZM52.91 2.20L52.91 2.20Q52.64 2.20 52.27 1.98L52.27 1.98L52.27 1.98Q51.90 1.76 51.63 1.46L51.63 1.46L51.63 1.46Q51.37 1.16 51.37 0.92L51.37 0.92L51.37 0.92Q51.37 0.55 51.56 0.17L51.56 0.17L51.56 0.17Q51.76-0.21 52.05-0.38L52.05-0.38L52.05-0.38Q52.19-0.45 52.50-0.45L52.50-0.45L52.50-0.45Q53.00-0.45 53.52-0.22L53.52-0.22L53.52-0.22Q54.03 0 54.14 0.34L54.14 0.34L54.14 0.34Q54.17 0.41 54.17 0.55L54.17 0.55L54.17 0.55Q54.17 0.87 53.97 1.26L53.97 1.26L53.97 1.26Q53.77 1.65 53.48 1.92L53.48 1.92L53.48 1.92Q53.19 2.20 52.91 2.20L52.91 2.20ZM51.95 10.50L51.95 10.50Q51.59 10.50 51.14 10.26L51.14 10.26L51.14 10.26Q50.68 10.01 50.35 9.68L50.35 9.68L50.35 9.68Q50.02 9.35 50.02 9.13L50.02 9.13L50.02 9.13Q50.02 8.88 50.20 8.39L50.20 8.39L50.20 8.39Q50.39 7.90 50.75 7.04L50.75 7.04L50.75 7.04Q51.03 6.38 51.17 6.01L51.17 6.01L51.17 6.01Q51.31 5.64 51.31 5.49L51.31 5.49L51.31 5.49Q51.31 5.38 51.18 5.24L51.18 5.24L51.18 5.24Q51.04 5.11 50.78 4.91L50.78 4.91L50.78 4.91Q50.47 4.68 50.32 4.54L50.32 4.54L50.32 4.54Q50.18 4.40 50.18 4.24L50.18 4.24L50.18 4.24Q50.18 3.95 50.45 3.56L50.45 3.56L50.45 3.56Q50.72 3.16 51.09 2.88L51.09 2.88L51.09 2.88Q51.46 2.60 51.73 2.60L51.73 2.60L51.73 2.60Q52.05 2.60 52.44 2.88L52.44 2.88L52.44 2.88Q52.82 3.16 53.10 3.55L53.10 3.55L53.10 3.55Q53.37 3.93 53.37 4.17L53.37 4.17L53.37 4.17Q53.37 4.79 53.05 5.93L53.05 5.93L53.05 5.93Q52.74 7.07 52.25 8.39L52.25 8.39L52.25 8.39Q52.58 8.23 52.84 8.06L52.84 8.06L52.84 8.06Q53.09 7.90 53.54 7.55L53.54 7.55L53.54 7.55Q54.17 7.76 54.46 8.14L54.46 8.14L54.46 8.14Q54.75 8.53 54.75 8.97L54.75 8.97L54.75 8.97Q54.75 9.34 54.29 9.69L54.29 9.69L54.29 9.69Q53.82 10.04 53.14 10.27L53.14 10.27L53.14 10.27Q52.47 10.50 51.95 10.50L51.95 10.50Z"></path></g><!----><!----></svg>